<svg width="16" height="20" viewBox="0 0 16 20" fill="none" xmlns="http://www.w3.org/2000/svg">
<path d="M1.17036 6.4783C0.844551 6.4783 0.568117 6.59847 0.340884 6.83881C0.113651 7.07915 0 7.36755 0 7.70416V12.8724C0 13.2174 0.113616 13.5095 0.340884 13.7499C0.568117 13.9903 0.844551 14.1105 1.17036 14.1105C1.49592 14.1105 1.77068 13.9903 1.99439 13.7499C2.21766 13.5096 2.3296 13.2174 2.3296 12.8724V7.70416C2.3296 7.36752 2.21598 7.07915 1.98872 6.83881C1.76145 6.59847 1.48861 6.4783 1.17036 6.4783Z" fill="white"/>
<path d="M10.5796 1.83878L11.3865 0.264526C11.4394 0.160303 11.4206 0.0803828 11.3298 0.0241851C11.2312 -0.0242735 11.1555 0.000281251 11.1026 0.0961137L10.2844 1.68295C9.56455 1.34631 8.80315 1.17768 8.00024 1.17768C7.19716 1.17768 6.4357 1.34635 5.71608 1.68295L4.89792 0.0961138C4.84476 0.000281367 4.76902 -0.0240564 4.67069 0.0241853C4.57967 0.080636 4.56083 0.160303 4.614 0.264526L5.42087 1.83878C4.60272 2.28008 3.95111 2.89467 3.46628 3.6839C2.98145 4.47356 2.73894 5.33648 2.73894 6.2742H13.2501C13.2501 5.3367 13.0076 4.47374 12.5228 3.6839C12.0379 2.89467 11.3901 2.28008 10.5796 1.83878ZM5.91487 4.12856C5.82761 4.22107 5.7234 4.2671 5.60226 4.2671C5.48088 4.2671 5.37879 4.22107 5.2955 4.12856C5.21221 4.03649 5.17056 3.9267 5.17056 3.79814C5.17056 3.67001 5.21221 3.56 5.2955 3.46772C5.37879 3.37564 5.48112 3.32961 5.60226 3.32961C5.7234 3.32961 5.82761 3.37564 5.91487 3.46772C6.00192 3.56022 6.04565 3.67001 6.04565 3.79814C6.04541 3.92648 6.00171 4.03649 5.91487 4.12856ZM10.7045 4.12856C10.6211 4.22107 10.5187 4.2671 10.3978 4.2671C10.2764 4.2671 10.1722 4.22107 10.0851 4.12856C9.99792 4.03649 9.95439 3.9267 9.95439 3.79814C9.95439 3.67001 9.99792 3.56 10.0851 3.46772C10.1722 3.37564 10.2764 3.32961 10.3978 3.32961C10.519 3.32961 10.621 3.37564 10.7045 3.46772C10.7879 3.56022 10.8295 3.67001 10.8295 3.79814C10.8295 3.92648 10.7879 4.03649 10.7045 4.12856Z" fill="white"/>
<path d="M2.78407 14.7113C2.78407 15.0803 2.90521 15.3926 3.14752 15.6488C3.39003 15.9051 3.68531 16.0333 4.03388 16.0333H4.87484L4.88637 18.7619C4.88637 19.1065 4.99998 19.3991 5.22722 19.6395C5.45445 19.8798 5.72733 20 6.04537 20C6.37097 20 6.64758 19.8798 6.87484 19.6395C7.10211 19.3991 7.21573 19.1065 7.21573 18.7619V16.0335H8.78386V18.7619C8.78386 19.1065 8.89744 19.3991 9.12471 19.6395C9.35198 19.8798 9.62835 20 9.95419 20C10.2798 20 10.5564 19.8798 10.7837 19.6395C11.0109 19.3991 11.1245 19.1065 11.1245 18.7619V16.0335H11.9768C12.3177 16.0335 12.6091 15.9054 12.8519 15.6491C13.0942 15.3928 13.2154 15.0805 13.2154 14.7116V6.70645H2.78407V14.7113Z" fill="white"/>
<path d="M14.8297 6.4783C14.5114 6.4783 14.2388 6.5967 14.0115 6.83284C13.7843 7.06942 13.6706 7.36003 13.6706 7.70416V12.8724C13.6706 13.2174 13.7842 13.5095 14.0115 13.7499C14.2388 13.9903 14.5116 14.1105 14.8297 14.1105C15.1553 14.1105 15.4319 13.9903 15.6592 13.7499C15.8864 13.5095 16 13.2174 16 12.8724V7.70416C16 7.36 15.8864 7.06942 15.6592 6.83284C15.4319 6.5967 15.1553 6.4783 14.8297 6.4783Z" fill="white"/>
</svg>
