<svg width="16" height="21" viewBox="0 0 16 21" fill="none" xmlns="http://www.w3.org/2000/svg">
<path d="M5.30468 21C2.40148 20.982 0 14.6019 0 11.3527C0 6.04513 3.69849 4.88316 5.12386 4.88316C5.76622 4.88316 6.45212 5.15472 7.0571 5.39503C7.48015 5.56266 7.91769 5.73571 8.16103 5.73571C8.30668 5.73571 8.64992 5.5885 8.95296 5.45934C9.59924 5.18236 10.4034 4.83812 11.3399 4.83812C11.3416 4.83812 11.3438 4.83812 11.3455 4.83812C12.0448 4.83812 14.165 5.00333 15.4397 7.06412L15.7383 7.54716L15.3085 7.89625C14.6946 8.39491 13.5745 9.30456 13.5745 11.1064C13.5745 13.2405 14.8431 14.0612 15.4525 14.456C15.7215 14.6302 16 14.8098 16 15.2028C16 15.4593 14.098 20.9682 11.336 20.9682C10.6602 20.9682 10.1824 20.7495 9.76105 20.5566C9.33468 20.3613 8.96687 20.1931 8.35911 20.1931C8.05103 20.1931 7.66147 20.3499 7.24904 20.5164C6.68544 20.7428 6.0475 21 5.32366 21H5.30468Z" fill="white"/>
<path d="M11.6325 0C11.7045 2.79218 9.84959 4.72927 7.99689 4.60778C7.69161 2.37952 9.84936 0 11.6325 0Z" fill="white"/>
</svg>
