<svg width="20" height="16" viewBox="0 0 20 16" fill="none" xmlns="http://www.w3.org/2000/svg">
<path d="M17.9557 3.98588L17.9661 4.50623C17.9661 9.84298 13.8359 16 6.28652 16C3.96878 16 1.81253 15.3309 0 14.1774C0.315109 14.2185 0.643251 14.2391 0.976559 14.2391C2.90107 14.2391 4.66925 13.5879 6.07298 12.5063C4.27348 12.4755 2.76827 11.3041 2.23954 9.70202C2.49218 9.75326 2.74737 9.77375 3.01305 9.77375C3.388 9.77375 3.75524 9.72252 4.09117 9.63279C2.21872 9.26114 0.80474 7.63086 0.80474 5.67765V5.62642C1.35421 5.92883 1.98435 6.10828 2.65629 6.12878C1.55735 5.40848 0.835973 4.16533 0.835973 2.77347C0.835973 2.03268 1.03911 1.33288 1.39586 0.740791C3.40882 3.1836 6.44014 4.78565 9.84896 4.95736C9.77601 4.66519 9.7474 4.35502 9.7474 4.03461C9.7474 1.81224 11.5781 0 13.8464 0C15.026 0 16.0938 0.492192 16.8463 1.27139C17.7734 1.09194 18.6562 0.761286 19.4505 0.299915C19.1458 1.24323 18.4948 2.03268 17.6406 2.53254C18.474 2.43256 19.2681 2.21213 20 1.89164C19.4505 2.70432 18.75 3.41429 17.9557 3.98588Z" fill="white"/>
</svg>
